<svg width="29" height="29" viewBox="0 0 29 29" fill="none" xmlns="http://www.w3.org/2000/svg">
<path d="M18.125 10.875H22.6562M18.125 14.5H22.6562M18.125 18.125H22.6562M5.4375 23.5625H23.5625C25.064 23.5625 26.2812 22.3453 26.2812 20.8438V8.15625C26.2812 6.65473 25.064 5.4375 23.5625 5.4375H5.4375C3.93598 5.4375 2.71875 6.65473 2.71875 8.15625V20.8438C2.71875 22.3453 3.93598 23.5625 5.4375 23.5625ZM12.6875 11.3281C12.6875 12.5794 11.6731 13.5938 10.4219 13.5938C9.1706 13.5938 8.15625 12.5794 8.15625 11.3281C8.15625 10.0769 9.1706 9.0625 10.4219 9.0625C11.6731 9.0625 12.6875 10.0769 12.6875 11.3281ZM14.2509 18.9846C13.1091 19.5928 11.8057 19.9375 10.4217 19.9375C9.0377 19.9375 7.73423 19.5928 6.59244 18.9846C7.16525 17.4251 8.66354 16.3125 10.4217 16.3125C12.1798 16.3125 13.6781 17.4251 14.2509 18.9846Z" stroke="#0F172A" stroke-width="1.5" stroke-linecap="round" stroke-linejoin="round"/>
</svg>
