<svg width="32" height="32" viewBox="0 0 42 42" fill="none" xmlns="http://www.w3.org/2000/svg">
<path d="M41.9964 21.8279C41.8678 15.7712 37.3332 10.8147 31.5038 9.92871C31.0225 7.45803 29.7889 5.19948 27.9245 3.42174C25.5397 1.14807 22.4081 -0.0660193 19.1044 0.00277079C13.9498 0.111538 9.84466 4.36968 9.95331 9.49508L10.2753 24.7049C10.645 24.3177 11.0173 23.9327 11.3925 23.5506C11.9079 23.0255 12.4283 22.5061 12.9535 21.9907L14.296 20.598C14.3061 19.8021 14.3358 19.0047 14.2529 18.212C14.2218 18.0279 14.1834 17.8457 14.1352 17.6652C13.9889 17.1185 14.1595 16.5866 14.5234 16.2174C14.4832 15.8389 14.4597 15.4593 14.4706 15.0786C14.4785 14.8024 14.5535 14.5499 14.6795 14.3331L14.5749 9.39928C14.5198 6.8065 16.595 4.65384 19.2026 4.5991C21.2705 4.55588 23.2324 5.31617 24.7256 6.73987C26.2188 8.16358 27.0648 10.0803 27.1082 12.1368L27.1568 14.4354L29.4673 14.3864C33.7376 14.2981 37.2839 17.6789 37.3748 21.9256C37.5461 30.0309 31.0554 36.7633 22.9057 36.9344L5.10649 37.3075L4.62155 14.3947L0 14.4905L0.582357 42L23.0017 41.53C33.7003 41.3056 42.2209 32.4674 41.9956 21.8279H41.9964Z" fill="#4F4545"/>
<path d="M26.482 35.8068L23.2648 35.8788L15.6908 27.0767L13.886 29.2552L14.0391 36.0856L11.5605 36.141L11.1096 16.0023L13.5882 15.9469L13.8234 26.4558L22.6388 15.7441L25.6432 15.6768L17.5304 25.3307L26.482 35.8068Z" fill="#4F4545"/>
<path d="M10.4981 37.2518L9.99854 14.9404L14.6499 14.8363L14.844 23.5052L22.1162 14.6688L28.0206 14.5366L18.9548 25.325L28.796 36.842L22.776 36.9767L15.7066 28.7612L14.9816 29.6364L15.1498 37.1478L10.4984 37.2518H10.4981ZM12.2203 17.0645L12.6226 35.0304L12.9284 35.0236L12.5261 17.0577L12.2203 17.0645ZM15.895 25.6484L23.7535 34.7812L24.1677 34.7718L16.1291 25.3639L15.895 25.6484ZM23.161 16.8196L18.3163 22.7067L23.2655 16.8175L23.1614 16.8196H23.161Z" fill="#4F4545"/>
</svg>
